<?xml version="1.0" encoding="UTF-8"?>
<svg version="1.1" xmlns="http://www.w3.org/2000/svg" width="256" height="256">
<path d="M0 0 C22.03852652 18.81159856 36.46579334 41.06373377 44.3515625 68.91015625 C44.69316406 70.08835937 45.03476563 71.2665625 45.38671875 72.48046875 C53.2707145 105.84993912 45.63575949 140.93326745 28.3515625 169.91015625 C23.42280626 177.55822627 17.58894229 184.30713695 11.3515625 190.91015625 C10.66578125 191.66039062 9.98 192.410625 9.2734375 193.18359375 C-6.15965534 209.47408064 -27.21452751 220.03157271 -48.6484375 225.91015625 C-49.82277344 226.24917969 -50.99710938 226.58820313 -52.20703125 226.9375 C-85.55621875 234.86386767 -120.68966521 227.18354707 -149.6484375 209.91015625 C-157.29650752 204.98140001 -164.0454182 199.14753604 -170.6484375 192.91015625 C-171.39867187 192.224375 -172.14890625 191.53859375 -172.921875 190.83203125 C-189.21236189 175.39893841 -199.76985396 154.34406624 -205.6484375 132.91015625 C-205.98746094 131.73582031 -206.32648438 130.56148437 -206.67578125 129.3515625 C-214.60214892 96.002375 -206.92182832 60.86892854 -189.6484375 31.91015625 C-184.71968126 24.26208623 -178.88581729 17.51317555 -172.6484375 10.91015625 C-171.96265625 10.15992188 -171.276875 9.4096875 -170.5703125 8.63671875 C-155.13721966 -7.65376814 -134.08234749 -18.21126021 -112.6484375 -24.08984375 C-111.47410156 -24.42886719 -110.29976563 -24.76789062 -109.08984375 -25.1171875 C-71.94565211 -33.94554411 -29.41843332 -24.13018445 0 0 Z M-143.7109375 45.84765625 C-144.58347168 46.00524414 -145.45600586 46.16283203 -146.35498047 46.32519531 C-158.45770415 48.47142383 -158.45770415 48.47142383 -167.6484375 55.91015625 C-168.74977897 59.76485139 -169.08007965 61.8790111 -167.5234375 65.59765625 C-165.36814832 68.25584624 -163.57811681 70.11239849 -160.6484375 71.91015625 C-155.16827665 72.29867512 -150.41316862 71.34207014 -145.1484375 70.03515625 C-130.16945564 66.31794568 -115.50170146 65.53354003 -100.1484375 65.59765625 C-99.22057434 65.5998114 -98.29271118 65.60196655 -97.33673096 65.60418701 C-83.26219318 65.65662139 -69.47674389 66.05204947 -55.6484375 68.91015625 C-54.67890137 69.10883301 -53.70936523 69.30750977 -52.71044922 69.51220703 C-36.44007387 72.97150805 -20.56921381 77.89434677 -5.9609375 85.97265625 C-1.98401886 88.05613929 1.0221379 88.37770953 5.4375 87.56640625 C8.99687933 86.34604762 10.71746669 84.17834788 12.3515625 80.91015625 C12.90788793 75.12437175 11.94045239 72.43145381 8.3515625 67.91015625 C6.13698307 66.36945405 4.17233568 65.16287328 1.7890625 63.97265625 C1.13848877 63.63838623 0.48791504 63.30411621 -0.18237305 62.9597168 C-43.54149706 41.35921213 -96.56924078 37.31191189 -143.7109375 45.84765625 Z M-137.6484375 88.91015625 C-138.44330566 89.06000977 -139.23817383 89.20986328 -140.05712891 89.36425781 C-150.51725338 91.32839957 -150.51725338 91.32839957 -158.6484375 97.91015625 C-160.0566692 101.34272101 -159.76788588 102.58953166 -158.4609375 106.09765625 C-156.55959702 109.04801217 -155.82493881 109.71273167 -152.6484375 110.91015625 C-150.61166548 111.01185179 -150.61166548 111.01185179 -148.515625 110.66015625 C-147.72768555 110.55058594 -146.93974609 110.44101563 -146.12792969 110.328125 C-141.98549527 109.62983357 -137.8814986 108.78576149 -133.7734375 107.91015625 C-96.69001548 100.34651337 -55.33916528 105.23491414 -22.3984375 124.47265625 C-19.04585521 126.3721069 -17.74394807 126.90553477 -13.7734375 127.09765625 C-9.90440983 125.62742574 -8.06701132 124.28150158 -5.6484375 120.91015625 C-4.81510417 117.41015625 -4.81510417 117.41015625 -5.6484375 113.91015625 C-9.8270092 108.57282096 -15.47750291 106.21742414 -21.5234375 103.41015625 C-22.55847412 102.92530762 -23.59351074 102.44045898 -24.65991211 101.94091797 C-59.79654139 85.73749148 -99.71610102 81.74052782 -137.6484375 88.91015625 Z M-138.6484375 130.91015625 C-139.92460937 131.14992187 -141.20078125 131.3896875 -142.515625 131.63671875 C-147.78946967 132.78760572 -151.16652337 133.54572932 -154.6484375 137.91015625 C-154.81428941 141.4992071 -154.81428941 141.4992071 -153.6484375 144.91015625 C-151.69763196 146.76826693 -150.45368756 147.83440676 -147.73828125 148.08984375 C-146.67287109 147.93902344 -146.67287109 147.93902344 -145.5859375 147.78515625 C-144.27882813 147.61113281 -144.27882813 147.61113281 -142.9453125 147.43359375 C-139.56867752 146.89749294 -136.19308369 146.35527675 -132.81787109 145.81030273 C-131.99883301 145.67825439 -131.17979492 145.54620605 -130.3359375 145.41015625 C-129.50529785 145.27617432 -128.6746582 145.14219238 -127.81884766 145.00415039 C-95.90501858 139.94586166 -62.29208041 142.73198158 -34.21875 159.7734375 C-31.14338244 161.13351647 -28.97892371 161.22296435 -25.6484375 160.91015625 C-22.3720459 158.75463546 -21.75567405 157.35560037 -20.8359375 153.53515625 C-21.73197845 149.53743511 -22.03790129 149.14924218 -25.2109375 146.91015625 C-48.23649882 133.41861641 -73.28739216 127.69003403 -99.8359375 127.66015625 C-100.89149841 127.65814713 -100.89149841 127.65814713 -101.96838379 127.65609741 C-114.38034474 127.66119783 -126.44386603 128.58004447 -138.6484375 130.91015625 Z " fill="#00DA5A" transform="translate(208.6484375,27.08984375)"/>
</svg>
